<svg width="573" height="222" viewBox="0 0 573 222" fill="none" xmlns="http://www.w3.org/2000/svg">
<path d="M177.321 22.1897C177.831 22.5867 178.34 22.9837 178.864 23.3928C202.174 41.7748 216.692 67.8379 220.571 97.2522C223.897 125.924 216.779 154.463 199.071 177.377C197.506 179.329 195.923 181.267 194.321 183.19C193.096 184.719 193.096 184.719 191.845 186.28C187.846 190.892 183.12 194.444 178.321 198.19C177.476 198.874 176.63 199.559 175.759 200.264C152.945 217.965 123.056 223.616 94.8214 220.502C74.3186 217.371 55.0143 208.708 39.3214 195.19C38.4539 194.483 37.5864 193.777 36.6925 193.049C14.9063 174.638 2.93382 147.21 0.321431 119.19C-2.06042 87.2552 8.91298 59.3031 29.3214 35.1897C65.5675 -6.7174 134.315 -11.3766 177.321 22.1897ZM51.3214 56.1897C35.5702 74.398 29.3281 95.1506 30.8331 118.83C32.5561 140.167 43.5302 158.653 59.2277 172.811C74.5341 185.011 95.638 192.7 115.321 191.19C136.844 188.448 153.943 180.524 169.321 165.19C170.435 164.111 170.435 164.111 171.571 163.01C185.083 149.023 190.831 129.259 191.321 110.19C190.952 88.8857 182.182 68.4415 167.321 53.1897C133.485 22.5912 83.3667 22.9498 51.3214 56.1897Z" fill="white"/>
<path d="M255.615 4.68797C256.52 4.68257 257.425 4.67717 258.357 4.6716C261.337 4.65914 264.315 4.67559 267.294 4.69359C269.38 4.69343 271.467 4.69194 273.553 4.68918C277.925 4.68779 282.297 4.70033 286.669 4.72313C292.238 4.75139 297.806 4.74881 303.375 4.73604C307.686 4.72904 311.997 4.73692 316.308 4.7493C318.359 4.75377 320.411 4.75418 322.462 4.75023C346.961 4.72516 367.584 9.50813 385.982 26.8303C401.004 41.9778 408.589 60.9634 408.821 82.1897C408.58 104.231 400.456 122.487 385.243 138.358C367.946 154.918 345.969 159.539 322.841 159.385C321.175 159.381 319.509 159.378 317.844 159.376C313.495 159.369 309.147 159.349 304.799 159.327C299.563 159.303 294.326 159.294 289.089 159.282C281.167 159.263 273.244 159.224 265.321 159.19C265.321 178.66 265.321 198.13 265.321 218.19C255.421 218.19 245.521 218.19 235.321 218.19C235.229 191.973 235.157 165.757 235.114 139.54C235.094 127.367 235.065 115.194 235.02 103.021C234.98 92.412 234.954 81.8025 234.945 71.193C234.94 65.575 234.928 59.9573 234.898 54.3394C234.871 49.051 234.863 43.7629 234.869 38.4745C234.868 36.5343 234.86 34.5941 234.845 32.654C234.825 30.0023 234.83 27.3518 234.84 24.7002C234.829 23.9346 234.817 23.169 234.805 22.3802C234.866 16.9013 236.183 13.7037 239.321 9.18968C244.714 5.09564 248.976 4.61167 255.615 4.68797ZM265.321 35.1897C265.321 66.2097 265.321 97.2297 265.321 129.19C276.789 129.252 288.256 129.313 300.071 129.377C305.468 129.418 305.468 129.418 310.973 129.46C314.247 129.47 314.247 129.47 317.521 129.476C318.96 129.481 320.399 129.491 321.837 129.506C338.357 129.674 352.884 127.034 365.286 115.354C374.986 105.039 378.73 92.8854 378.599 78.9553C377.701 66.7709 372.261 55.1113 363.282 46.7795C350.624 36.5169 336.85 34.5796 321.083 34.7991C319.647 34.805 318.211 34.809 316.774 34.8113C311.519 34.832 306.264 34.8879 301.009 34.9397C283.344 35.0634 283.344 35.0634 265.321 35.1897Z" fill="white"/>
<path d="M472.634 2.87718C473.579 2.8398 474.524 2.80242 475.497 2.7639C479.3 3.33726 480.663 4.39839 483.321 7.18968C485.032 10.0333 486.326 13.0187 487.634 16.0647C488.055 17.0175 488.476 17.9704 488.91 18.9521C493.625 29.7064 498.142 40.5497 502.678 51.3806C508.179 64.5129 513.766 77.6071 519.384 90.6897C530.275 116.062 541.112 141.457 551.91 166.868C553.333 170.218 554.758 173.567 556.183 176.916C558.455 182.256 560.722 187.598 562.987 192.941C563.829 194.927 564.673 196.913 565.518 198.899C566.673 201.614 567.824 204.331 568.974 207.049C569.488 208.253 569.488 208.253 570.012 209.481C572.321 214.961 572.321 214.961 572.321 217.19C561.101 217.19 549.881 217.19 538.321 217.19C527.329 192.796 516.901 168.169 506.444 143.542C501.742 132.469 497.031 121.4 492.318 110.331C490.861 106.907 489.404 103.481 487.947 100.056C484.065 90.931 480.18 81.8078 476.228 72.7131C475.942 72.0525 475.657 71.3919 475.363 70.7113C474.185 67.7339 474.185 67.7339 472.321 65.1897C462.705 87.1282 453.188 109.108 443.759 131.127C443.261 132.289 442.764 133.451 442.251 134.648C437.182 146.484 432.118 158.323 427.06 170.165C424.813 175.425 422.564 180.684 420.314 185.944C418.969 189.089 417.624 192.236 416.282 195.383C414.798 198.86 413.312 202.335 411.825 205.811C411.16 207.374 411.16 207.374 410.481 208.968C410.077 209.911 409.673 210.853 409.257 211.824C408.905 212.648 408.554 213.472 408.191 214.32C407.321 216.19 407.321 216.19 406.321 217.19C403.728 217.278 401.161 217.305 398.568 217.287C397.792 217.286 397.017 217.285 396.218 217.283C393.731 217.277 391.245 217.265 388.759 217.252C387.077 217.247 385.396 217.243 383.714 217.239C379.583 217.227 375.452 217.21 371.321 217.19C377.779 201.592 384.349 186.047 391.016 170.538C393.645 164.421 396.271 158.301 398.896 152.182C399.299 151.243 399.298 151.243 399.709 150.285C405.439 136.931 411.133 123.562 416.821 110.19C422.804 96.1268 428.796 82.068 434.818 68.0217C435.088 67.3904 435.359 66.7591 435.638 66.1087C438.508 59.4129 441.381 52.7179 444.255 46.0237C444.73 44.9157 445.206 43.8077 445.695 42.6662C446.619 40.5154 447.544 38.3652 448.47 36.2158C450.571 31.332 452.637 26.4404 454.611 21.5036C454.966 20.6249 455.322 19.7461 455.688 18.8407C456.338 17.226 456.977 15.6066 457.601 13.9816C460.524 6.75723 464.707 3.081 472.634 2.87718Z" fill="white"/>
</svg>
