<svg width="2385" height="1145" viewBox="0 0 2385 1145" fill="none" xmlns="http://www.w3.org/2000/svg">
<path d="M455.684 0.0191913C459.527 0.035302 463.369 0.0192026 467.211 0.00014835C490.529 -0.0204396 513.609 2.10239 536.59 6.03531C537.689 6.22088 537.689 6.22088 538.81 6.41021C618.382 19.9891 693.966 55.1788 755.176 107.861C756.527 108.992 757.902 110.093 759.29 111.178C767.599 117.733 775.008 125.087 782.462 132.584C784.648 134.781 786.845 136.967 789.043 139.152C796.501 146.603 803.526 154.103 810.028 162.41C810.95 163.501 811.88 164.586 812.821 165.66C836.305 192.631 855.023 223.544 871.028 255.41C871.681 256.703 871.681 256.703 872.347 258.022C887.987 289.169 899.395 322.429 907.028 356.41C907.249 357.39 907.47 358.369 907.698 359.378C926.495 443.976 920.075 531.651 878.028 645.41C877.554 646.452 877.079 647.493 876.591 648.567C857.979 689.148 833.397 726.891 803.293 759.899C802.064 761.261 800.842 762.629 799.654 764.027C794.394 770.186 788.719 775.905 782.995 781.628C781.29 783.336 779.592 785.052 777.895 786.768C771.977 792.715 765.986 798.312 759.395 803.516C757.064 805.381 754.853 807.332 752.653 809.348C747.04 814.376 741.067 818.914 735.028 823.41C734.34 823.923 733.652 824.435 732.943 824.964C723.199 832.187 713.302 838.997 702.917 845.265C701.104 846.364 699.303 847.482 697.504 848.606C686.355 855.512 674.723 861.491 663.028 867.41C662.04 867.915 661.052 868.42 660.034 868.94C643.161 877.513 625.902 884.294 608.028 890.41C606.913 890.792 605.798 891.174 604.65 891.567C557.797 907.437 508.998 914.887 459.59 914.723C458.413 914.721 457.236 914.719 456.023 914.716C368.828 914.461 280.566 889.547 208.028 840.41C207.339 839.947 206.651 839.484 205.942 839.008C197.111 833.058 188.463 826.913 180.028 820.41C179.181 819.761 179.181 819.761 178.317 819.098C171.492 813.853 164.832 808.521 158.504 802.676C156.43 800.779 154.331 798.924 152.211 797.078C135.11 782.148 119.507 765.885 105.028 748.41C104.537 747.819 104.046 747.228 103.541 746.619C95.519 736.904 88.1445 726.803 81.0276 716.41C80.3583 715.435 80.3583 715.435 79.6756 714.441C38.9696 654.909 13.7425 586.72 4.0276 515.41C3.93566 514.737 3.84371 514.065 3.74898 513.372C-7.41981 430.021 6.76073 344.853 41.0276 268.41C41.4398 267.488 41.852 266.566 42.2766 265.616C60.0236 226.282 84.4819 189.706 113.028 157.41C113.645 156.694 114.263 155.977 114.899 155.238C125.819 142.564 137.298 129.954 150.059 119.102C152.305 117.172 154.473 115.166 156.653 113.16C162.305 108.062 168.262 103.402 174.287 98.757C175.902 97.5076 177.506 96.2447 179.11 94.9806C238.147 48.751 308.669 18.5152 382.465 6.03531C383.142 5.91947 383.818 5.80364 384.515 5.68429C408.117 1.70808 431.76 -0.099444 455.684 0.0191913ZM208.028 235.41C204.83 238.926 201.93 242.65 199.028 246.41C198.142 247.476 197.253 248.538 196.36 249.598C183.379 265.139 172.428 282.49 163.028 300.41C162.524 301.369 162.524 301.369 162.011 302.347C159.594 306.993 157.281 311.683 155.028 316.41C154.704 317.087 154.381 317.764 154.048 318.462C139.576 349.098 130.491 381.858 126.028 415.41C125.912 416.249 125.796 417.088 125.677 417.952C114.964 498.618 138.184 588.099 187.156 653.048C189.077 655.532 191.048 657.974 193.028 660.41C194.002 661.654 194.002 661.654 194.996 662.922C196.978 665.443 198.995 667.93 201.028 670.41C201.828 671.398 202.629 672.385 203.453 673.402C209.774 681.062 216.59 688.182 223.59 695.223C224.452 696.094 225.314 696.965 226.202 697.863C232.17 703.802 238.46 709.151 245.028 714.41C246.843 715.97 248.656 717.532 250.465 719.098C280.952 744.419 317.453 763.171 355.028 775.41C355.875 775.693 356.723 775.976 357.596 776.267C389.303 786.775 422.337 791.598 455.654 791.596C458.495 791.598 461.335 791.616 464.176 791.635C480.762 791.686 497.227 790.524 513.59 787.723C514.57 787.556 515.55 787.388 516.56 787.216C544.89 782.154 572.796 773.935 598.769 761.484C600.98 760.433 603.205 759.42 605.438 758.418C633.846 745.578 659.802 727.085 683.028 706.41C683.808 705.716 683.808 705.716 684.605 705.008C695.008 695.717 705.09 686.176 713.766 675.227C715.754 672.752 717.813 670.362 719.909 667.979C726.85 660.025 732.732 651.425 738.555 642.632C739.836 640.699 741.131 638.776 742.43 636.856C790.084 564.987 805.07 475.269 788.387 391.181C775.936 332.517 749.118 278.976 709.028 234.41C708.392 233.683 707.757 232.956 707.102 232.207C698.048 221.946 688.525 212.071 677.762 203.594C675.358 201.674 673.054 199.676 670.753 197.635C656.364 185.006 639.773 174.623 623.028 165.41C622.176 164.94 621.325 164.47 620.448 163.986C587.273 145.815 551.907 133.443 514.59 127.098C513.73 126.951 512.87 126.803 511.983 126.652C494.927 123.956 477.837 123.027 460.59 123.098C459.64 123.1 458.689 123.102 457.709 123.104C360.342 123.456 274.462 165.778 208.028 235.41Z" fill="white"/>
<path d="M1045.98 19.1496C1047.5 19.1466 1049.03 19.1427 1050.56 19.138C1054.74 19.1277 1058.92 19.1299 1063.11 19.1342C1067.63 19.1367 1072.15 19.1276 1076.66 19.1201C1085.52 19.1074 1094.37 19.1056 1103.22 19.1079C1110.43 19.1097 1117.63 19.108 1124.84 19.1037C1126.38 19.1028 1126.38 19.1028 1127.95 19.1019C1130.04 19.1007 1132.12 19.0995 1134.21 19.0983C1153.78 19.0874 1173.34 19.0896 1192.91 19.0957C1210.76 19.1008 1228.62 19.0896 1246.47 19.0706C1264.83 19.0511 1283.19 19.0429 1301.56 19.0467C1311.85 19.0486 1322.15 19.0462 1332.45 19.032C1341.22 19.02 1350 19.0187 1358.77 19.0308C1363.24 19.0366 1367.71 19.0379 1372.17 19.0258C1396.03 18.9653 1419.54 19.7348 1442.97 24.7853C1443.99 24.9995 1445.01 25.2137 1446.07 25.4345C1487.38 34.2306 1526.12 50.5658 1561.03 74.4103C1561.65 74.8302 1562.26 75.2501 1562.9 75.6828C1571.75 81.732 1579.96 88.365 1588.03 95.4103C1589.1 96.3326 1589.1 96.3326 1590.2 97.2736C1592.16 98.9677 1594.09 100.684 1596.03 102.41C1596.96 103.242 1597.9 104.073 1598.86 104.93C1604.51 109.997 1609.83 115.181 1614.83 120.906C1616.31 122.591 1617.82 124.25 1619.35 125.883C1673.47 183.573 1700.21 263.521 1700.28 341.723C1700.28 342.818 1700.28 342.818 1700.28 343.934C1700.17 418.951 1670.37 494.97 1619.28 549.973C1617.37 552.039 1615.53 554.14 1613.72 556.285C1606.11 565.001 1597.82 573.069 1588.75 580.246C1585.91 582.506 1583.16 584.859 1580.4 587.223C1569.07 596.674 1556.77 604.993 1544.03 612.41C1543.38 612.789 1542.73 613.167 1542.06 613.557C1487.87 644.895 1429 658.052 1366.74 657.758C1363.18 657.745 1359.62 657.75 1356.06 657.752C1349.93 657.754 1343.8 657.745 1337.67 657.727C1328.81 657.703 1319.95 657.695 1311.09 657.692C1296.7 657.685 1282.32 657.665 1267.93 657.637C1253.98 657.609 1240.03 657.588 1226.08 657.575C1225.21 657.574 1224.34 657.573 1223.44 657.573C1216.61 657.566 1209.78 657.561 1202.95 657.555C1169.64 657.527 1136.33 657.466 1103.03 657.41C1103.03 737.6 1103.03 817.79 1103.03 900.41C1062.44 900.41 1021.85 900.41 980.028 900.41C979.995 862.725 979.995 862.725 979.983 848.106C979.982 847.195 979.982 846.285 979.981 845.348C979.931 785.084 979.887 724.821 979.858 664.557C979.858 663.393 979.857 662.23 979.857 661.031C979.845 635.741 979.834 610.452 979.823 585.163C979.818 572.761 979.813 560.359 979.808 547.957C979.807 546.723 979.807 545.488 979.806 544.217C979.789 504.218 979.759 464.219 979.722 424.219C979.685 383.114 979.66 342.008 979.652 300.902C979.651 295.096 979.649 289.289 979.648 283.483C979.648 282.34 979.648 281.197 979.647 280.02C979.643 261.627 979.624 243.235 979.6 224.842C979.577 206.349 979.568 187.857 979.574 169.364C979.577 158.378 979.569 147.393 979.544 136.407C979.529 129.064 979.529 121.721 979.54 114.378C979.546 110.197 979.546 106.016 979.528 101.835C979.512 98.0225 979.514 94.2104 979.531 90.3978C979.535 88.399 979.52 86.4002 979.504 84.4014C979.638 66.1417 985.22 49.7576 998.028 36.4103C1012.5 23.5807 1027.07 19.0966 1045.98 19.1496ZM1103.03 142.41C1103.03 271.77 1103.03 401.13 1103.03 534.41C1173.53 534.503 1173.53 534.503 1245.47 534.598C1260.27 534.625 1275.08 534.652 1290.34 534.681C1303.68 534.691 1303.68 534.691 1317.03 534.697C1322.94 534.699 1328.86 534.71 1334.77 534.727C1341.62 534.746 1348.46 534.755 1355.31 534.751C1358.8 534.749 1362.29 534.751 1365.78 534.768C1411.47 534.952 1454.13 525.9 1492.03 499.41C1492.59 499.018 1493.15 498.627 1493.73 498.223C1502.72 491.898 1510.8 484.638 1518.56 476.875C1520.17 475.27 1521.8 473.693 1523.47 472.149C1557.22 440.197 1575.07 391.07 1577.03 345.41C1578.3 292.4 1559.13 241.776 1522.73 203.246C1521.84 202.31 1520.95 201.375 1520.03 200.41C1519.23 199.557 1518.43 198.704 1517.6 197.824C1492.16 171.423 1457.62 154.469 1422.22 146.285C1421.54 146.126 1420.87 145.968 1420.17 145.804C1403.62 142.149 1387.2 142.127 1370.33 142.178C1366.68 142.187 1363.03 142.184 1359.39 142.183C1352.33 142.181 1345.27 142.191 1338.21 142.204C1330.04 142.218 1321.86 142.22 1313.69 142.221C1292.13 142.232 1270.58 142.259 1249.03 142.285C1200.85 142.327 1152.67 142.368 1103.03 142.41Z" fill="white"/>
<path d="M2000.03 18.4103C2014.45 29.8082 2020.6 49.055 2027.59 65.4103C2028.6 67.7602 2029.61 70.1099 2030.63 72.4594C2033.77 79.771 2036.9 87.09 2040.03 94.4103C2041.01 96.7031 2041.99 98.9959 2042.97 101.289C2048.72 114.736 2054.44 128.193 2060.16 141.653C2064.92 152.866 2069.69 164.076 2074.47 175.285C2075.17 176.952 2075.17 176.952 2075.9 178.652C2086.23 202.911 2096.62 227.146 2107.01 251.378C2112.52 264.22 2118.02 277.064 2123.53 289.908C2125.03 293.406 2126.52 296.904 2128.02 300.402C2128.52 301.557 2129.01 302.712 2129.52 303.901C2132.53 310.922 2135.54 317.942 2138.55 324.962C2149.39 350.217 2160.2 375.481 2170.96 400.767C2181.26 424.979 2191.63 449.165 2202 473.347C2207.58 486.357 2213.15 499.368 2218.73 512.379C2220.23 515.875 2221.72 519.371 2223.22 522.867C2223.95 524.576 2223.96 524.576 2224.7 526.318C2227.93 533.854 2231.16 541.388 2234.39 548.922C2243.4 569.927 2252.39 590.942 2261.34 611.973C2272.19 637.46 2283.09 662.922 2294.01 688.378C2299.52 701.22 2305.02 714.064 2310.53 726.908C2312.03 730.406 2313.52 733.904 2315.02 737.402C2315.52 738.557 2316.01 739.712 2316.52 740.901C2319.53 747.922 2322.54 754.942 2325.55 761.961C2328.07 767.819 2330.58 773.677 2333.09 779.535C2333.83 781.263 2333.83 781.263 2334.59 783.026C2342.58 801.669 2350.54 820.326 2358.47 838.994C2363.28 850.317 2368.11 861.633 2373.02 872.91C2373.41 873.792 2373.79 874.674 2374.19 875.583C2375.95 879.639 2377.73 883.692 2379.51 887.741C2380.12 889.135 2380.73 890.528 2381.34 891.922C2381.86 893.113 2382.38 894.303 2382.92 895.53C2384.03 898.41 2384.03 898.41 2384.03 901.41C2337.83 901.41 2291.63 901.41 2244.03 901.41C2236.44 883.59 2228.85 865.77 2221.03 847.41C2213.18 829.099 2213.18 829.099 2205.33 810.789C2199.77 797.819 2194.24 784.833 2188.72 771.848C2180.86 753.4 2172.99 734.962 2165.09 716.535C2164.59 715.378 2164.1 714.221 2163.59 713.028C2160.07 704.822 2156.55 696.616 2153.03 688.41C2149.01 679.036 2144.98 669.661 2140.97 660.285C2140.47 659.127 2139.97 657.969 2139.46 656.776C2131.65 638.547 2123.87 620.303 2116.1 602.053C2108.79 584.87 2101.45 567.698 2094.09 550.535C2093.59 549.377 2093.1 548.22 2092.59 547.027C2089.07 538.821 2085.55 530.615 2082.03 522.41C2078.01 513.036 2073.98 503.661 2069.97 494.285C2069.47 493.127 2068.97 491.969 2068.46 490.776C2060.65 472.547 2052.87 454.303 2045.1 436.053C2034.8 411.851 2024.44 387.676 2014.07 363.504C2009.44 352.702 2004.81 341.898 2000.18 331.094C1998.67 327.577 1997.16 324.061 1995.66 320.545C1991.4 310.61 1987.14 300.675 1982.89 290.738C1981.18 286.764 1979.48 282.79 1977.78 278.816C1976.99 276.979 1976.21 275.141 1975.42 273.302C1974.35 270.81 1973.29 268.317 1972.22 265.824C1971.75 264.729 1971.75 264.729 1971.27 263.611C1969.72 259.978 1969.72 259.978 1968.03 256.41C1955.11 286.115 1942.24 315.838 1929.5 345.622C1924.84 356.519 1920.18 367.414 1915.51 378.308C1914.98 379.543 1914.45 380.778 1913.92 382.013C1907.68 396.579 1901.43 411.139 1895.11 425.671C1889.43 438.751 1883.83 451.864 1878.22 464.973C1871.21 481.334 1864.19 497.689 1857.11 514.019C1850.65 528.943 1844.24 543.895 1837.84 558.848C1831.3 574.13 1824.75 589.409 1818.12 604.654C1812.37 617.885 1806.71 631.15 1801.03 644.41C1794.42 659.838 1787.81 675.263 1781.12 690.652C1775.37 703.884 1769.71 717.15 1764.03 730.41C1757.42 745.838 1750.81 761.263 1744.12 776.652C1737.83 791.127 1731.64 805.64 1725.43 820.147C1719.06 835.012 1712.68 849.871 1706.23 864.698C1703.74 870.432 1701.27 876.176 1698.84 881.938C1698.58 882.555 1698.32 883.172 1698.06 883.807C1696.82 886.74 1695.59 889.675 1694.36 892.611C1693.94 893.624 1693.51 894.636 1693.07 895.68C1692.7 896.573 1692.33 897.466 1691.94 898.386C1691.03 900.41 1691.03 900.41 1690.03 901.41C1688.21 901.507 1686.38 901.532 1684.55 901.531C1682.77 901.533 1682.77 901.533 1680.96 901.535C1679.64 901.531 1678.33 901.528 1676.97 901.524C1675.58 901.524 1674.19 901.524 1672.8 901.524C1669.02 901.525 1665.24 901.519 1661.45 901.512C1657.51 901.505 1653.56 901.505 1649.61 901.504C1642.12 901.501 1634.64 901.492 1627.16 901.482C1618.64 901.471 1610.12 901.466 1601.6 901.461C1584.08 901.45 1566.55 901.433 1549.03 901.41C1549.69 897.908 1550.55 894.867 1551.96 891.591C1552.37 890.648 1552.77 889.706 1553.19 888.735C1553.63 887.714 1554.07 886.693 1554.53 885.641C1555 884.558 1555.46 883.475 1555.94 882.36C1557.22 879.392 1558.5 876.427 1559.78 873.462C1561.15 870.313 1562.5 867.161 1563.86 864.01C1565.84 859.414 1567.82 854.818 1569.8 850.224C1574.74 838.777 1579.64 827.317 1584.55 815.857C1587.04 810.05 1589.53 804.244 1592.02 798.438C1593.02 796.105 1594.01 793.773 1595.01 791.441C1597.03 786.727 1599.06 782.012 1601.08 777.297C1601.58 776.12 1602.08 774.943 1602.6 773.731C1603.62 771.356 1604.64 768.981 1605.66 766.606C1608.18 760.712 1610.71 754.817 1613.24 748.922C1617.95 737.914 1622.67 726.905 1627.39 715.899C1636.4 694.894 1645.39 673.878 1654.34 652.848C1665.19 627.36 1676.09 601.899 1687.01 576.443C1690.02 569.43 1693.03 562.416 1696.03 555.402C1696.53 554.248 1697.02 553.093 1697.53 551.904C1699.03 548.406 1700.53 544.908 1702.03 541.41C1707.53 528.559 1713.04 515.708 1718.55 502.859C1728.91 478.722 1739.24 454.577 1749.53 430.41C1760.31 405.069 1771.15 379.753 1782.01 354.443C1785.02 347.43 1788.03 340.416 1791.03 333.402C1791.53 332.248 1792.02 331.093 1792.53 329.904C1794.03 326.406 1795.53 322.908 1797.03 319.41C1802.53 306.559 1808.04 293.708 1813.55 280.859C1823.91 256.722 1834.24 232.577 1844.53 208.41C1854.79 184.282 1865.11 160.177 1875.45 136.079C1879.38 126.93 1883.3 117.778 1887.22 108.625C1890.06 101.976 1892.91 95.3279 1895.76 88.6815C1896.25 87.5431 1896.74 86.4046 1897.24 85.2317C1898.2 83.0093 1899.15 80.7869 1900.11 78.5646C1902.49 73.0042 1904.87 67.44 1907.22 61.8672C1908.41 59.0593 1909.61 56.2543 1910.8 53.4499C1911.55 51.6999 1912.28 49.9456 1913.01 48.191C1919.48 33.0777 1928.04 21.7614 1943.03 14.4103C1961.74 7.00671 1983 6.60453 2000.03 18.4103Z" fill="white"/>
<path d="M1164.03 1052.41C1168.98 1052.41 1173.93 1052.41 1179.03 1052.41C1183.86 1074.71 1188.47 1097.05 1193.03 1119.41C1195.45 1107.96 1197.82 1096.5 1200.11 1085.02C1200.28 1084.12 1200.46 1083.22 1200.65 1082.29C1201.55 1077.76 1202.45 1073.22 1203.35 1068.68C1203.68 1066.99 1204.02 1065.3 1204.36 1063.61C1204.51 1062.83 1204.66 1062.04 1204.82 1061.24C1205.42 1058.22 1206.05 1055.33 1207.03 1052.41C1211.98 1052.41 1216.93 1052.41 1222.03 1052.41C1222.03 1082.44 1222.03 1112.47 1222.03 1143.41C1218.73 1143.41 1215.43 1143.41 1212.03 1143.41C1211.7 1122.95 1211.37 1102.49 1211.03 1081.41C1210.17 1085.8 1209.32 1090.19 1208.44 1094.72C1207.76 1098.21 1207.07 1101.7 1206.39 1105.2C1205.67 1108.89 1204.95 1112.58 1204.23 1116.27C1203.54 1119.83 1202.85 1123.38 1202.15 1126.93C1201.88 1128.29 1201.62 1129.65 1201.36 1131.01C1200.99 1132.9 1200.62 1134.8 1200.24 1136.7C1199.93 1138.32 1199.93 1138.32 1199.6 1139.97C1199.03 1142.41 1199.03 1142.41 1198.03 1143.41C1194.4 1143.41 1190.77 1143.41 1187.03 1143.41C1183.07 1124.27 1179.11 1105.13 1175.03 1085.41C1174.7 1104.55 1174.37 1123.69 1174.03 1143.41C1170.73 1143.41 1167.43 1143.41 1164.03 1143.41C1164.03 1113.38 1164.03 1083.35 1164.03 1052.41Z" fill="white"/>
<path d="M466.028 1052.41C470.648 1052.41 475.268 1052.41 480.028 1052.41C486.64 1072 492.96 1091.64 499.028 1111.41C499.358 1091.94 499.688 1072.47 500.028 1052.41C503.328 1052.41 506.628 1052.41 510.028 1052.41C510.028 1082.44 510.028 1112.47 510.028 1143.41C506.068 1143.41 502.108 1143.41 498.028 1143.41C490.742 1121.83 483.762 1100.17 477.028 1078.41C476.698 1099.86 476.368 1121.31 476.028 1143.41C472.728 1143.41 469.428 1143.41 466.028 1143.41C466.028 1113.38 466.028 1083.35 466.028 1052.41Z" fill="white"/>
<path d="M1442.03 1052.41C1472.44 1052.41 1472.44 1052.41 1477.78 1056.54C1483.92 1064.39 1483.82 1072.75 1483.03 1082.41C1481.77 1087.97 1480.35 1090.65 1476.03 1094.41C1475.7 1094.74 1475.37 1095.07 1475.03 1095.41C1475.51 1095.79 1475.99 1096.16 1476.49 1096.55C1477.12 1097.06 1477.75 1097.57 1478.4 1098.1C1479.03 1098.6 1479.66 1099.1 1480.3 1099.61C1485.22 1104.74 1484.39 1111.6 1484.4 1118.22C1484.43 1119.28 1484.45 1120.33 1484.48 1121.42C1484.5 1127.87 1483.97 1133.12 1480.03 1138.41C1468.28 1147.76 1459.96 1143.41 1442.03 1143.41C1442.03 1113.38 1442.03 1083.35 1442.03 1052.41ZM1453.03 1062.41C1453.03 1071.65 1453.03 1080.89 1453.03 1090.41C1465.4 1091.76 1465.4 1091.76 1471.03 1086.41C1473.1 1080.2 1472.87 1072.89 1470.78 1066.72C1469.01 1064.03 1469.01 1064.03 1465.03 1062.41C1461.07 1062.41 1457.11 1062.41 1453.03 1062.41ZM1453.03 1101.41C1453.03 1111.97 1453.03 1122.53 1453.03 1133.41C1457.98 1133.41 1462.93 1133.41 1468.03 1133.41C1473.63 1127.81 1473.26 1125.12 1473.34 1117.6C1473.37 1116.69 1473.4 1115.79 1473.43 1114.86C1473.47 1110.53 1473.45 1108.1 1471.13 1104.34C1465.27 1098.98 1463.83 1101.41 1453.03 1101.41Z" fill="white"/>
<path d="M2032.03 1052.41C2062.96 1052.41 2062.96 1052.41 2068.9 1058.22C2072.94 1064.28 2073.37 1069.72 2073.34 1076.79C2073.36 1077.6 2073.37 1078.41 2073.39 1079.25C2073.39 1086.08 2072.34 1092.36 2067.34 1097.41C2066.58 1098.07 2065.81 1098.73 2065.03 1099.41C2065.44 1099.86 2065.85 1100.3 2066.27 1100.77C2066.81 1101.37 2067.35 1101.97 2067.9 1102.6C2068.44 1103.19 2068.97 1103.78 2069.52 1104.39C2072.71 1108.67 2073.29 1112.63 2073.41 1117.88C2073.44 1119.11 2073.47 1120.34 2073.51 1121.61C2073.54 1122.88 2073.56 1124.16 2073.59 1125.47C2073.65 1128.01 2073.71 1130.54 2073.78 1133.07C2073.81 1134.19 2073.83 1135.31 2073.85 1136.47C2073.95 1139.62 2073.95 1139.62 2075.03 1143.41C2071.07 1143.41 2067.11 1143.41 2063.03 1143.41C2061.96 1140.19 2061.87 1137.77 2061.82 1134.39C2061.79 1133.2 2061.76 1132.01 2061.73 1130.79C2061.68 1128.3 2061.63 1125.8 2061.6 1123.3C2061.57 1122.11 2061.54 1120.92 2061.5 1119.7C2061.48 1118.61 2061.46 1117.53 2061.44 1116.41C2060.97 1113 2060.12 1111.13 2058.03 1108.41C2053.12 1105.65 2053.12 1105.65 2043.03 1105.41C2043.03 1117.95 2043.03 1130.49 2043.03 1143.41C2039.4 1143.41 2035.77 1143.41 2032.03 1143.41C2032.03 1113.38 2032.03 1083.35 2032.03 1052.41ZM2043.03 1062.41C2043.03 1073.3 2043.03 1084.19 2043.03 1095.41C2052.35 1095.75 2052.35 1095.75 2060.03 1092.41C2062.56 1087.96 2062.36 1083.39 2062.34 1078.41C2062.36 1077.62 2062.37 1076.82 2062.39 1076C2062.39 1071.35 2062.14 1068.13 2059.03 1064.41C2053.98 1061.52 2053.98 1061.52 2043.03 1062.41Z" fill="white"/>
<path d="M1345.03 1054.41C1349.68 1058.26 1351.95 1062.49 1353.03 1068.41C1353.33 1072.92 1353.33 1077.42 1353.33 1081.94C1353.33 1083.24 1353.34 1084.54 1353.34 1085.89C1353.35 1088.64 1353.35 1091.38 1353.34 1094.13C1353.34 1097.64 1353.35 1101.14 1353.38 1104.65C1353.4 1108.01 1353.39 1111.38 1353.39 1114.75C1353.4 1116 1353.41 1117.25 1353.42 1118.54C1353.38 1126.55 1352.98 1132.82 1347.72 1139.22C1341.26 1144.48 1335.8 1145 1327.67 1144.82C1322.73 1144.26 1319.49 1142.99 1316.03 1139.41C1312.26 1134.35 1310.91 1129.64 1310.85 1123.41C1310.84 1122.18 1310.82 1120.94 1310.81 1119.67C1310.8 1118.32 1310.8 1116.97 1310.79 1115.62C1310.79 1114.93 1310.78 1114.25 1310.78 1113.55C1310.76 1109.94 1310.74 1106.32 1310.73 1102.71C1310.72 1098.99 1310.69 1095.27 1310.65 1091.55C1310.62 1088.68 1310.61 1085.81 1310.61 1082.94C1310.6 1081.57 1310.59 1080.2 1310.57 1078.83C1310.47 1070.4 1310.44 1063.44 1316.4 1056.9C1324.31 1049.7 1335.82 1049.51 1345.03 1054.41ZM1324.03 1064.41C1321.88 1067.68 1321.77 1070.43 1321.74 1074.29C1321.72 1075.48 1321.71 1076.66 1321.7 1077.88C1321.7 1079.16 1321.69 1080.44 1321.69 1081.75C1321.69 1083.06 1321.68 1084.38 1321.67 1085.73C1321.66 1088.51 1321.66 1091.29 1321.66 1094.07C1321.66 1097.63 1321.63 1101.18 1321.6 1104.74C1321.57 1108.14 1321.57 1111.54 1321.57 1114.94C1321.55 1116.21 1321.54 1117.49 1321.52 1118.8C1321.53 1120.58 1321.53 1120.58 1321.54 1122.4C1321.54 1123.44 1321.54 1124.48 1321.53 1125.56C1322.15 1129.14 1323.54 1130.81 1326.03 1133.41C1329.25 1135.02 1332.55 1135.02 1336.03 1134.41C1339.25 1131.88 1340.73 1130.3 1342.03 1126.41C1342.13 1124.58 1342.18 1122.75 1342.19 1120.92C1342.2 1119.79 1342.21 1118.67 1342.22 1117.51C1342.22 1116.29 1342.23 1115.08 1342.23 1113.82C1342.24 1112.58 1342.24 1111.33 1342.25 1110.04C1342.26 1107.39 1342.26 1104.75 1342.27 1102.11C1342.27 1098.72 1342.3 1095.34 1342.33 1091.96C1342.35 1088.73 1342.35 1085.49 1342.36 1082.26C1342.37 1081.05 1342.38 1079.84 1342.39 1078.59C1342.39 1077.46 1342.39 1076.33 1342.38 1075.16C1342.39 1074.17 1342.39 1073.18 1342.4 1072.16C1341.84 1067.97 1339.97 1065.35 1337.03 1062.41C1331.67 1061.07 1328.64 1061.3 1324.03 1064.41Z" fill="white"/>
<path d="M243.028 1054.41C247.743 1058.46 249.663 1062.33 251.028 1068.41C251.158 1071.05 251.199 1073.7 251.153 1076.35C251.144 1077.03 251.135 1077.72 251.125 1078.42C251.102 1080.08 251.066 1081.75 251.028 1083.41C247.728 1083.41 244.428 1083.41 241.028 1083.41C240.906 1082.37 240.785 1081.34 240.66 1080.27C240.492 1078.9 240.322 1077.53 240.153 1076.16C240.074 1075.48 239.995 1074.8 239.914 1074.09C239.464 1070.53 239.051 1067.43 237.028 1064.41C234.12 1062.71 232.337 1062.4 228.965 1062.54C225.554 1063.55 224.188 1064.61 222.028 1067.41C221.011 1070.5 220.891 1073.38 220.866 1076.62C220.852 1078.18 220.852 1078.18 220.837 1079.76C220.831 1081.44 220.831 1081.44 220.824 1083.15C220.819 1084.3 220.813 1085.46 220.807 1086.65C220.798 1089.09 220.791 1091.53 220.787 1093.97C220.778 1097.7 220.747 1101.42 220.715 1105.15C220.709 1107.52 220.703 1109.9 220.699 1112.27C220.687 1113.38 220.675 1114.49 220.662 1115.64C220.682 1122.53 220.904 1128.29 226.028 1133.41C230.918 1133.97 232.934 1134.2 236.965 1131.29C240.758 1126 240.283 1119.36 240.59 1113.04C240.633 1112.2 240.676 1111.37 240.721 1110.52C240.826 1108.48 240.927 1106.45 241.028 1104.41C237.728 1104.41 234.428 1104.41 231.028 1104.41C231.028 1101.11 231.028 1097.81 231.028 1094.41C237.628 1094.41 244.228 1094.41 251.028 1094.41C251.12 1099.07 251.2 1103.73 251.247 1108.39C251.267 1109.97 251.294 1111.55 251.329 1113.13C251.709 1130.77 251.709 1130.77 247.028 1138.41C244.528 1140.91 244.528 1140.91 242.028 1142.41C241.468 1142.76 240.909 1143.12 240.332 1143.48C237.065 1144.8 234.163 1144.71 230.653 1144.72C229.366 1144.74 228.08 1144.76 226.754 1144.77C221.217 1144.23 218.097 1142.53 214.278 1138.54C208.528 1130.55 208.869 1122.04 208.86 1112.55C208.856 1111.4 208.853 1110.25 208.85 1109.07C208.844 1106.65 208.842 1104.23 208.842 1101.81C208.84 1098.12 208.822 1094.43 208.803 1090.75C208.8 1088.39 208.798 1086.03 208.797 1083.67C208.79 1082.58 208.783 1081.48 208.775 1080.36C208.803 1071.13 209.202 1062.29 216.028 1055.41C224.213 1050.4 234.562 1049.37 243.028 1054.41Z" fill="white"/>
<path d="M2278.03 1052.41C2283.31 1052.41 2288.59 1052.41 2294.03 1052.41C2296.25 1063.98 2298.46 1075.55 2300.68 1087.12C2301.71 1092.49 2302.73 1097.86 2303.76 1103.23C2304.76 1108.41 2305.75 1113.6 2306.74 1118.78C2307.12 1120.76 2307.5 1122.74 2307.88 1124.72C2308.41 1127.48 2308.94 1130.25 2309.47 1133.01C2309.63 1133.84 2309.78 1134.66 2309.95 1135.51C2311.03 1141.18 2311.03 1141.18 2311.03 1143.41C2307.4 1143.41 2303.77 1143.41 2300.03 1143.41C2297.92 1137.85 2297.02 1132.25 2296.03 1126.41C2288.77 1126.08 2281.51 1125.75 2274.03 1125.41C2273.53 1130.36 2273.53 1130.36 2273.03 1135.41C2272.41 1138.09 2271.76 1140.76 2271.03 1143.41C2267.73 1143.41 2264.43 1143.41 2261.03 1143.41C2261.75 1133.87 2263.57 1124.6 2265.37 1115.22C2265.7 1113.47 2266.04 1111.72 2266.37 1109.97C2267.06 1106.31 2267.76 1102.66 2268.46 1099.01C2269.35 1094.33 2270.24 1089.64 2271.13 1084.96C2271.81 1081.35 2272.5 1077.74 2273.19 1074.13C2273.52 1072.4 2273.85 1070.68 2274.17 1068.95C2274.63 1066.54 2275.09 1064.14 2275.55 1061.73C2275.69 1061.01 2275.82 1060.3 2275.96 1059.56C2276.91 1054.64 2276.91 1054.64 2278.03 1052.41ZM2285.03 1069.41C2283.29 1074.21 2282.23 1078.95 2281.3 1083.95C2281.07 1085.15 2281.07 1085.15 2280.84 1086.38C2280.52 1088.07 2280.2 1089.76 2279.89 1091.45C2279.4 1094.04 2278.91 1096.62 2278.42 1099.2C2278.11 1100.85 2277.8 1102.49 2277.49 1104.14C2277.34 1104.91 2277.19 1105.68 2277.04 1106.47C2276.41 1109.87 2276.03 1112.94 2276.03 1116.41C2282.3 1116.41 2288.57 1116.41 2295.03 1116.41C2292.06 1100.9 2289.09 1085.39 2286.03 1069.41C2285.7 1069.41 2285.37 1069.41 2285.03 1069.41Z" fill="white"/>
<path d="M1912.03 1052.41C1917.31 1052.41 1922.59 1052.41 1928.03 1052.41C1930.25 1063.98 1932.46 1075.55 1934.68 1087.12C1935.71 1092.49 1936.73 1097.86 1937.76 1103.23C1938.76 1108.41 1939.75 1113.6 1940.74 1118.78C1941.12 1120.76 1941.5 1122.74 1941.88 1124.72C1942.41 1127.48 1942.94 1130.25 1943.47 1133.01C1943.63 1133.84 1943.78 1134.66 1943.95 1135.51C1945.03 1141.18 1945.03 1141.18 1945.03 1143.41C1941.4 1143.41 1937.77 1143.41 1934.03 1143.41C1931.92 1137.85 1931.02 1132.25 1930.03 1126.41C1922.77 1126.08 1915.51 1125.75 1908.03 1125.41C1907.53 1130.36 1907.53 1130.36 1907.03 1135.41C1906.41 1138.09 1905.76 1140.76 1905.03 1143.41C1901.73 1143.41 1898.43 1143.41 1895.03 1143.41C1895.75 1133.87 1897.57 1124.6 1899.37 1115.22C1899.7 1113.47 1900.04 1111.72 1900.37 1109.97C1901.06 1106.31 1901.76 1102.66 1902.46 1099.01C1903.35 1094.33 1904.24 1089.64 1905.13 1084.96C1905.81 1081.35 1906.5 1077.74 1907.19 1074.13C1907.52 1072.4 1907.85 1070.68 1908.17 1068.95C1908.63 1066.54 1909.09 1064.14 1909.55 1061.73C1909.69 1061.01 1909.82 1060.3 1909.96 1059.56C1910.91 1054.64 1910.91 1054.64 1912.03 1052.41ZM1919.03 1069.41C1917.29 1074.21 1916.23 1078.95 1915.3 1083.95C1915.07 1085.15 1915.07 1085.15 1914.84 1086.38C1914.52 1088.07 1914.2 1089.76 1913.89 1091.45C1913.4 1094.04 1912.91 1096.62 1912.42 1099.2C1912.11 1100.85 1911.8 1102.49 1911.49 1104.14C1911.34 1104.91 1911.19 1105.68 1911.04 1106.47C1910.41 1109.87 1910.03 1112.94 1910.03 1116.41C1916.3 1116.41 1922.57 1116.41 1929.03 1116.41C1926.06 1100.9 1923.09 1085.39 1920.03 1069.41C1919.7 1069.41 1919.37 1069.41 1919.03 1069.41Z" fill="white"/>
<path d="M843.028 1052.41C848.308 1052.41 853.588 1052.41 859.028 1052.41C862.742 1069.87 866.195 1087.38 869.532 1104.92C870.215 1108.51 870.903 1112.09 871.593 1115.68C872.13 1118.48 872.663 1121.28 873.196 1124.08C873.571 1126.04 873.948 1128 874.326 1129.97C874.55 1131.15 874.775 1132.33 875.005 1133.55C875.204 1134.59 875.402 1135.63 875.606 1136.7C876.028 1139.41 876.028 1139.41 876.028 1143.41C872.398 1143.41 868.768 1143.41 865.028 1143.41C864.523 1141.16 864.024 1138.91 863.528 1136.66C863.249 1135.41 862.971 1134.15 862.684 1132.86C862.028 1129.41 862.028 1129.41 862.028 1125.41C854.768 1125.41 847.508 1125.41 840.028 1125.41C839.038 1131.35 838.048 1137.29 837.028 1143.41C833.398 1143.41 829.768 1143.41 826.028 1143.41C829.187 1124.66 832.737 1105.98 836.329 1087.31C837.088 1083.36 837.845 1079.41 838.602 1075.46C840.075 1067.78 841.551 1060.09 843.028 1052.41ZM850.028 1067.41C847.058 1083.58 844.088 1099.75 841.028 1116.41C847.298 1116.41 853.568 1116.41 860.028 1116.41C859.305 1109.5 859.305 1109.5 858.18 1102.72C857.94 1101.52 857.94 1101.52 857.695 1100.29C857.525 1099.46 857.355 1098.63 857.18 1097.78C857.004 1096.91 856.828 1096.03 856.646 1095.13C856.089 1092.37 855.527 1089.61 854.965 1086.85C854.584 1084.96 854.203 1083.08 853.823 1081.19C852.895 1076.6 851.963 1072 851.028 1067.41C850.698 1067.41 850.368 1067.41 850.028 1067.41Z" fill="white"/>
<path d="M90.0276 1052.41C95.3076 1052.41 100.588 1052.41 106.028 1052.41C107.953 1062.21 109.875 1072 111.791 1081.8C112.682 1086.35 113.573 1090.91 114.468 1095.46C115.334 1099.86 116.196 1104.26 117.055 1108.66C117.382 1110.33 117.709 1112 118.038 1113.67C119.987 1123.56 121.726 1133.41 123.028 1143.41C119.398 1143.41 115.768 1143.41 112.028 1143.41C111.521 1141.35 111.022 1139.29 110.528 1137.22C110.249 1136.07 109.971 1134.93 109.684 1133.74C109.028 1130.41 109.028 1130.41 109.028 1125.41C101.768 1125.74 94.5076 1126.07 87.0276 1126.41C86.0822 1131.26 86.0822 1131.26 85.1431 1136.1C84.1387 1141.19 84.1387 1141.19 83.0276 1143.41C79.7276 1143.41 76.4276 1143.41 73.0276 1143.41C73.6173 1137.64 74.3887 1131.99 75.5022 1126.29C75.6471 1125.54 75.7919 1124.78 75.9411 1124C76.4145 1121.54 76.8928 1119.07 77.3714 1116.61C77.7041 1114.88 78.0366 1113.16 78.3688 1111.43C79.0627 1107.83 79.7588 1104.23 80.4568 1100.63C81.3511 1096.01 82.2413 1091.4 83.13 1086.78C83.9799 1082.37 84.8318 1077.96 85.6839 1073.55C85.8458 1072.71 86.0077 1071.87 86.1745 1071C86.6328 1068.63 87.0927 1066.26 87.553 1063.88C87.6881 1063.18 87.8232 1062.48 87.9624 1061.76C88.5737 1058.61 89.2503 1055.52 90.0276 1052.41ZM97.0276 1068.41C94.5062 1080.33 92.0137 1092.26 89.7151 1104.22C89.544 1105.1 89.3729 1105.99 89.1966 1106.9C89.0416 1107.71 88.8865 1108.53 88.7268 1109.37C88.5911 1110.08 88.4553 1110.79 88.3155 1111.52C87.9522 1113.59 87.9522 1113.59 88.0276 1116.41C94.2976 1116.41 100.568 1116.41 107.028 1116.41C104.323 1100.35 101.298 1084.37 98.0276 1068.41C97.6976 1068.41 97.3676 1068.41 97.0276 1068.41Z" fill="white"/>
<path d="M632.028 1054.41C636.743 1058.46 638.663 1062.33 640.028 1068.41C640.158 1071.05 640.199 1073.7 640.153 1076.35C640.144 1077.03 640.135 1077.72 640.125 1078.42C640.102 1080.08 640.066 1081.75 640.028 1083.41C636.728 1083.41 633.428 1083.41 630.028 1083.41C629.906 1082.37 629.785 1081.34 629.66 1080.27C629.492 1078.9 629.322 1077.53 629.153 1076.16C629.074 1075.48 628.995 1074.8 628.914 1074.09C628.464 1070.53 628.051 1067.43 626.028 1064.41C623.12 1062.71 621.337 1062.4 617.965 1062.54C614.554 1063.55 613.188 1064.61 611.028 1067.41C610.011 1070.5 609.891 1073.38 609.866 1076.62C609.852 1078.18 609.852 1078.18 609.837 1079.76C609.831 1081.44 609.831 1081.44 609.824 1083.15C609.819 1084.3 609.813 1085.46 609.807 1086.65C609.798 1089.09 609.791 1091.53 609.787 1093.97C609.778 1097.7 609.747 1101.42 609.715 1105.15C609.709 1107.52 609.703 1109.9 609.699 1112.27C609.687 1113.38 609.675 1114.49 609.662 1115.64C609.682 1122.53 609.904 1128.29 615.028 1133.41C620.768 1134.16 620.768 1134.16 625.707 1131.5C628.875 1127.28 629.021 1123.75 629.34 1118.6C629.413 1117.71 629.486 1116.83 629.561 1115.92C629.737 1113.75 629.885 1111.58 630.028 1109.41C633.328 1109.41 636.628 1109.41 640.028 1109.41C640.832 1131.18 640.832 1131.18 636.028 1138.41C633.528 1140.91 633.528 1140.91 631.028 1142.41C630.468 1142.76 629.909 1143.12 629.332 1143.48C626.065 1144.8 623.163 1144.71 619.653 1144.72C618.366 1144.74 617.08 1144.76 615.754 1144.77C610.217 1144.23 607.097 1142.53 603.278 1138.54C597.528 1130.55 597.869 1122.04 597.86 1112.55C597.856 1111.4 597.853 1110.25 597.85 1109.07C597.844 1106.65 597.842 1104.23 597.842 1101.81C597.84 1098.12 597.822 1094.43 597.803 1090.75C597.8 1088.39 597.798 1086.03 597.797 1083.67C597.79 1082.58 597.783 1081.48 597.775 1080.36C597.803 1071.13 598.202 1062.29 605.028 1055.41C613.213 1050.4 623.562 1049.37 632.028 1054.41Z" fill="white"/>
<path d="M340.028 1052.41C352.568 1052.41 365.108 1052.41 378.028 1052.41C378.028 1055.71 378.028 1059.01 378.028 1062.41C369.118 1062.41 360.208 1062.41 351.028 1062.41C351.028 1072.31 351.028 1082.21 351.028 1092.41C358.288 1092.41 365.548 1092.41 373.028 1092.41C373.028 1095.71 373.028 1099.01 373.028 1102.41C365.768 1102.41 358.508 1102.41 351.028 1102.41C351.028 1112.64 351.028 1122.87 351.028 1133.41C359.938 1133.41 368.848 1133.41 378.028 1133.41C378.028 1136.71 378.028 1140.01 378.028 1143.41C365.488 1143.41 352.948 1143.41 340.028 1143.41C340.028 1113.38 340.028 1083.35 340.028 1052.41Z" fill="white"/>
<path d="M1673.03 1052.41C1676.66 1052.41 1680.29 1052.41 1684.03 1052.41C1684.03 1079.14 1684.03 1105.87 1684.03 1133.41C1692.61 1133.41 1701.19 1133.41 1710.03 1133.41C1710.03 1136.71 1710.03 1140.01 1710.03 1143.41C1697.82 1143.41 1685.61 1143.41 1673.03 1143.41C1673.03 1113.38 1673.03 1083.35 1673.03 1052.41Z" fill="white"/>
<path d="M2163.03 1052.41C2166.66 1052.41 2170.29 1052.41 2174.03 1052.41C2174.03 1082.44 2174.03 1112.47 2174.03 1143.41C2170.4 1143.41 2166.77 1143.41 2163.03 1143.41C2163.03 1113.38 2163.03 1083.35 2163.03 1052.41Z" fill="white"/>
<path d="M1797.03 1052.41C1800.66 1052.41 1804.29 1052.41 1808.03 1052.41C1808.03 1082.44 1808.03 1112.47 1808.03 1143.41C1804.4 1143.41 1800.77 1143.41 1797.03 1143.41C1797.03 1113.38 1797.03 1083.35 1797.03 1052.41Z" fill="white"/>
<path d="M1572.03 1052.41C1575.66 1052.41 1579.29 1052.41 1583.03 1052.41C1583.03 1082.44 1583.03 1112.47 1583.03 1143.41C1579.4 1143.41 1575.77 1143.41 1572.03 1143.41C1572.03 1113.38 1572.03 1083.35 1572.03 1052.41Z" fill="white"/>
<path d="M1063.03 1052.41C1066.66 1052.41 1070.29 1052.41 1074.03 1052.41C1074.03 1082.44 1074.03 1112.47 1074.03 1143.41C1070.4 1143.41 1066.77 1143.41 1063.03 1143.41C1063.03 1113.38 1063.03 1083.35 1063.03 1052.41Z" fill="white"/>
<path d="M728.028 1052.41C731.658 1052.41 735.288 1052.41 739.028 1052.41C739.028 1082.44 739.028 1112.47 739.028 1143.41C735.398 1143.41 731.768 1143.41 728.028 1143.41C728.028 1113.38 728.028 1083.35 728.028 1052.41Z" fill="white"/>
<path d="M2359.03 365.41C2359.69 364.75 2360.35 364.09 2361.03 363.41C2366.24 361.406 2371.66 361.985 2376.84 363.598C2380.36 365.602 2381.58 366.654 2383.03 370.41C2383.56 375.39 2383.2 378.476 2380.03 382.41C2374.6 386.324 2369.5 386.091 2363.03 385.41C2360.66 384.65 2359.11 383.798 2357.03 382.41C2356.47 382.898 2355.91 383.385 2355.34 383.887C2351.47 386.437 2347.5 385.941 2343.03 385.41C2338.82 383.711 2336.82 381.568 2335.03 377.41C2334.63 373.676 2334.74 371.166 2336.09 367.66C2342.04 360.745 2351.5 361.207 2359.03 365.41ZM2341.03 371.41C2341.28 373.753 2341.62 376.089 2342.03 378.41C2345.15 379.974 2348.61 379.81 2352.03 379.41C2353.02 378.75 2354.01 378.09 2355.03 377.41C2355.61 374.453 2355.61 374.453 2355.03 371.41C2352.96 369.111 2351.64 368.504 2348.59 368.035C2345.5 368.487 2343.58 369.659 2341.03 371.41ZM2361.03 371.41C2361.28 373.753 2361.62 376.089 2362.03 378.41C2364.48 379.637 2366.23 379.612 2368.97 379.66C2369.84 379.686 2370.72 379.712 2371.62 379.738C2374.08 379.605 2374.08 379.605 2375.81 378.051C2377.21 376.402 2377.21 376.402 2377.53 373.91C2377.26 371.23 2377.26 371.23 2374.9 369.598C2369.37 367.314 2365.86 368.002 2361.03 371.41Z" fill="white"/>
<path d="M2356.6 337.17C2358.82 337.16 2361.05 337.129 2363.27 337.098C2364.7 337.091 2366.12 337.086 2367.55 337.082C2368.84 337.073 2370.13 337.063 2371.46 337.054C2375.32 337.439 2377.72 338.411 2381.03 340.41C2383.45 343.383 2383.39 346.685 2383.28 350.445C2382.9 353.408 2381.96 355.15 2380.03 357.41C2376.63 359.289 2373.88 359.63 2370.03 359.41C2370.03 357.43 2370.03 355.45 2370.03 353.41C2372.01 352.75 2373.99 352.09 2376.03 351.41C2376.03 349.1 2376.03 346.79 2376.03 344.41C2372.07 344.41 2368.11 344.41 2364.03 344.41C2364.58 345.988 2364.58 345.988 2365.15 347.598C2366.03 351.41 2366.03 351.41 2365.47 354.16C2363.61 357.067 2362.16 357.937 2359.03 359.41C2356.18 359.836 2353.4 359.83 2350.53 359.785C2349.78 359.797 2349.03 359.808 2348.27 359.82C2343.7 359.796 2340.74 359.321 2337.03 356.41C2334.54 352.559 2334.87 348.885 2335.48 344.5C2336.26 341.541 2337.55 340.156 2340.03 338.41C2345.33 336.644 2351.05 337.185 2356.6 337.17ZM2342.18 344.77C2340.54 347.102 2340.6 348.635 2341.03 351.41C2344.59 353.782 2346.31 353.709 2350.53 353.723C2352.24 353.748 2352.24 353.748 2354 353.774C2357 353.658 2357 353.658 2358.94 352.051C2360.28 350.381 2360.28 350.381 2359.9 347.848C2359.18 345.084 2359.18 345.084 2356.03 343.41C2353.16 343.055 2353.16 343.055 2350.03 343.098C2348.98 343.081 2347.92 343.064 2346.84 343.047C2344.03 343.18 2344.03 343.18 2342.18 344.77Z" fill="white"/>
<path d="M2361.03 569.41C2361.69 568.75 2362.35 568.09 2363.03 567.41C2366.8 565.982 2370.8 566.299 2374.78 566.348C2375.47 566.352 2376.17 566.357 2376.89 566.361C2378.6 566.373 2380.32 566.391 2382.03 566.41C2382.03 568.39 2382.03 570.37 2382.03 572.41C2381.14 572.471 2380.24 572.531 2379.32 572.594C2377.57 572.72 2377.57 572.72 2375.78 572.848C2374.62 572.929 2373.46 573.01 2372.26 573.094C2368.87 573.346 2368.87 573.346 2365.03 574.41C2364.37 577.05 2363.71 579.69 2363.03 582.41C2369.3 582.41 2375.57 582.41 2382.03 582.41C2382.03 584.39 2382.03 586.37 2382.03 588.41C2366.85 588.41 2351.67 588.41 2336.03 588.41C2336.03 572.41 2336.03 572.41 2341.03 567.41C2347.66 564.535 2354.67 566.988 2361.03 569.41ZM2342.03 574.41C2340.58 576.932 2340.58 576.932 2341.03 582.41C2346.31 582.41 2351.59 582.41 2357.03 582.41C2357.03 580.1 2357.03 577.79 2357.03 575.41C2354.53 573.198 2352.82 572.51 2349.53 572.098C2346.72 572.449 2344.56 573.146 2342.03 574.41Z" fill="white"/>
<path d="M2348.03 388.41C2348.03 390.39 2348.03 392.37 2348.03 394.41C2346.05 395.07 2344.07 395.73 2342.03 396.41C2342.03 398.39 2342.03 400.37 2342.03 402.41C2344.55 403.673 2346.34 403.509 2349.15 403.473C2350.06 403.464 2350.97 403.455 2351.91 403.445C2352.61 403.434 2353.31 403.422 2354.03 403.41C2353.7 403.08 2353.37 402.75 2353.03 402.41C2352.49 398.046 2352.21 394.543 2354.84 390.91C2358.81 388.19 2362.21 388.248 2366.9 388.223C2368.12 388.209 2369.33 388.194 2370.58 388.18C2375.21 388.489 2377.93 389.404 2381.34 392.535C2383.55 396.303 2383.74 399.141 2383.03 403.41C2381.81 406.201 2380.91 407.809 2378.4 409.524C2375.08 410.765 2371.87 410.716 2368.38 410.711C2367.27 410.717 2367.27 410.717 2366.14 410.724C2364.59 410.73 2363.03 410.73 2361.47 410.726C2359.1 410.723 2356.73 410.746 2354.36 410.772C2352.84 410.774 2351.33 410.775 2349.81 410.774C2349.11 410.783 2348.4 410.792 2347.68 410.801C2343.28 410.76 2340.54 410.07 2337.03 407.41C2334.46 403.989 2334.66 400.564 2335.03 396.41C2336.49 392.838 2337.66 391.635 2340.97 389.598C2344.03 388.41 2344.03 388.41 2348.03 388.41ZM2359.28 396.16C2357.83 398.292 2357.83 398.292 2358.15 400.535C2358.98 402.594 2358.98 402.594 2361.03 404.41C2364.05 404.731 2364.05 404.731 2367.47 404.66C2369.2 404.668 2369.2 404.668 2370.96 404.676C2374.2 404.643 2374.2 404.643 2377.03 402.41C2376.7 400.1 2376.37 397.79 2376.03 395.41C2370.61 393.603 2364.2 393.029 2359.28 396.16Z" fill="white"/>
<path d="M2350.97 461.012C2352.27 461.008 2353.58 461.004 2354.93 461C2355.6 461.006 2356.27 461.013 2356.97 461.019C2359.02 461.035 2361.07 461.019 2363.13 461C2365.09 461.006 2365.09 461.006 2367.09 461.012C2368.28 461.015 2369.46 461.019 2370.69 461.022C2375.42 461.572 2378.83 462.976 2381.9 466.66C2383.34 470.172 2383.43 472.643 2383.03 476.41C2381.81 479.149 2380.88 480.829 2378.4 482.528C2375.08 483.764 2371.87 483.716 2368.38 483.711C2367.27 483.717 2367.27 483.717 2366.14 483.724C2364.59 483.73 2363.03 483.73 2361.47 483.726C2359.1 483.723 2356.73 483.746 2354.36 483.772C2352.84 483.774 2351.33 483.775 2349.81 483.774C2349.11 483.783 2348.4 483.792 2347.68 483.801C2343.28 483.76 2340.54 483.07 2337.03 480.41C2334.46 476.989 2334.66 473.564 2335.03 469.41C2336.43 465.985 2337.53 464.707 2340.71 462.795C2344.39 461.259 2346.99 461.023 2350.97 461.012ZM2341.03 470.41C2340.53 472.953 2340.53 472.953 2341.03 475.41C2343.93 478.315 2346.1 477.669 2350.15 477.676C2351.21 477.679 2351.21 477.679 2352.28 477.682C2353.77 477.683 2355.25 477.679 2356.74 477.671C2359.02 477.66 2361.3 477.671 2363.57 477.684C2365.02 477.682 2366.46 477.68 2367.9 477.676C2369.22 477.674 2370.54 477.671 2371.89 477.669C2375.13 477.742 2375.13 477.742 2377.03 475.41C2377.53 472.953 2377.53 472.953 2377.03 470.41C2374.73 468.096 2373.32 467.449 2370.07 467.022C2368.94 467.019 2367.81 467.015 2366.65 467.012C2365.42 467.008 2364.19 467.004 2362.92 467C2360.99 467.018 2360.99 467.018 2359.03 467.035C2357.74 467.024 2356.46 467.012 2355.14 467C2353.29 467.006 2353.29 467.006 2351.4 467.012C2349.71 467.017 2349.71 467.017 2347.99 467.022C2344.73 467.449 2343.33 468.096 2341.03 470.41Z" fill="white"/>
<path d="M2352.03 517.41C2352.03 519.39 2352.03 521.37 2352.03 523.41C2348.73 523.74 2345.43 524.07 2342.03 524.41C2342.03 526.72 2342.03 529.03 2342.03 531.41C2344.93 532.861 2347.48 532.54 2350.72 532.543C2351.37 532.544 2352.03 532.545 2352.71 532.546C2354.1 532.547 2355.49 532.545 2356.89 532.541C2359.02 532.535 2361.15 532.541 2363.29 532.547C2364.64 532.546 2365.99 532.545 2367.34 532.543C2368.57 532.542 2369.81 532.541 2371.08 532.54C2373.96 532.614 2373.96 532.614 2376.03 531.41C2376.03 529.43 2376.03 527.45 2376.03 525.41C2372.4 524.75 2368.77 524.09 2365.03 523.41C2365.03 521.43 2365.03 519.45 2365.03 517.41C2370.85 517.104 2374.81 517.444 2380.03 520.41C2382.54 523.33 2382.99 525.069 2383.4 528.91C2383 532.682 2382.44 534.503 2380.03 537.41C2374.18 540.438 2367.72 539.745 2361.31 539.726C2359.1 539.723 2356.89 539.746 2354.69 539.772C2353.27 539.774 2351.85 539.775 2350.44 539.774C2348.52 539.778 2348.52 539.778 2346.57 539.783C2342.72 539.378 2340.31 538.421 2337.03 536.41C2334.49 532.656 2334.81 528.837 2335.42 524.5C2336.37 521.226 2338.12 520.033 2341.03 518.41C2344.57 516.992 2348.25 517.338 2352.03 517.41Z" fill="white"/>
<path d="M2347.22 592.348C2348.12 592.357 2349.02 592.366 2349.95 592.375C2350.63 592.387 2351.32 592.398 2352.03 592.41C2352.03 594.06 2352.03 595.71 2352.03 597.41C2351.07 597.609 2351.07 597.609 2350.09 597.813C2348.85 598.078 2348.85 598.078 2347.59 598.348C2346.35 598.609 2346.35 598.609 2345.09 598.875C2343.05 599.218 2343.05 599.218 2342.03 600.41C2341.86 602.91 2341.86 602.91 2342.03 605.41C2343.7 607.087 2345.76 606.538 2347.99 606.549C2348.69 606.547 2349.38 606.545 2350.09 606.543C2350.8 606.544 2351.5 606.545 2352.23 606.546C2353.73 606.547 2355.22 606.545 2356.72 606.541C2359.02 606.535 2361.32 606.541 2363.61 606.547C2365.06 606.546 2366.51 606.545 2367.97 606.543C2369 606.546 2369 606.546 2370.06 606.549C2373.33 606.813 2373.33 606.813 2376.03 605.41C2376.07 603.744 2376.07 602.076 2376.03 600.41C2372.38 598.8 2368.98 597.961 2365.03 597.41C2365.03 595.76 2365.03 594.11 2365.03 592.41C2375.93 591.784 2375.93 591.784 2380.22 594.223C2383.41 598.073 2383.36 601.559 2383.03 606.41C2381.81 609.149 2380.88 610.829 2378.4 612.528C2375.08 613.764 2371.87 613.716 2368.38 613.711C2367.27 613.717 2367.27 613.718 2366.14 613.724C2364.59 613.73 2363.03 613.73 2361.47 613.726C2359.1 613.723 2356.73 613.746 2354.36 613.772C2352.84 613.774 2351.33 613.775 2349.81 613.774C2349.11 613.783 2348.4 613.792 2347.68 613.801C2343.28 613.76 2340.54 613.07 2337.03 610.41C2334.46 606.983 2334.6 603.571 2335.03 599.41C2338.26 593.396 2340.58 592.262 2347.22 592.348Z" fill="white"/>
<path d="M2355.17 437.25C2360 440.168 2364.26 443.979 2368.54 447.641C2371.4 449.859 2371.4 449.859 2377.03 451.41C2377.03 446.46 2377.03 441.51 2377.03 436.41C2378.68 436.41 2380.33 436.41 2382.03 436.41C2382.03 443.34 2382.03 450.27 2382.03 457.41C2370.38 457.41 2370.38 457.41 2364.03 452.41C2362.72 451.382 2362.72 451.382 2361.38 450.332C2359.62 448.929 2357.87 447.513 2356.13 446.082C2353.24 443.781 2351.65 443.272 2348.03 443.285C2347.33 443.283 2346.63 443.28 2345.9 443.277C2343.94 443.296 2343.94 443.296 2342.03 444.41C2342.03 446.06 2342.03 447.71 2342.03 449.41C2345.29 451.294 2348.31 451.903 2352.03 452.41C2352.03 454.06 2352.03 455.71 2352.03 457.41C2341.11 457.983 2341.11 457.983 2337.03 454.41C2334.46 450.988 2334.66 447.564 2335.03 443.41C2338.59 435.399 2347.39 434.201 2355.17 437.25Z" fill="white"/>
<path d="M2336.03 542.41C2337.68 542.41 2339.33 542.41 2341.03 542.41C2341.03 547.03 2341.03 551.65 2341.03 556.41C2345.98 556.41 2350.93 556.41 2356.03 556.41C2356.03 552.78 2356.03 549.15 2356.03 545.41C2358.01 545.41 2359.99 545.41 2362.03 545.41C2362.03 549.04 2362.03 552.67 2362.03 556.41C2366.98 556.41 2371.93 556.41 2377.03 556.41C2377.03 551.79 2377.03 547.17 2377.03 542.41C2378.68 542.41 2380.33 542.41 2382.03 542.41C2382.03 549.01 2382.03 555.61 2382.03 562.41C2366.85 562.41 2351.67 562.41 2336.03 562.41C2336.03 555.81 2336.03 549.21 2336.03 542.41Z" fill="white"/>
<path d="M2336.03 303.41C2341.35 303.361 2346.67 303.325 2351.99 303.3C2353.8 303.29 2355.61 303.277 2357.42 303.259C2360.02 303.235 2362.62 303.224 2365.23 303.215C2366.03 303.205 2366.84 303.194 2367.67 303.184C2372.72 303.183 2376.63 303.605 2380.8 306.742C2382.38 308.891 2382.52 310.452 2382.72 313.098C2382.81 314.31 2382.81 314.31 2382.91 315.547C2382.97 316.469 2382.97 316.469 2383.03 317.41C2381.05 317.41 2379.07 317.41 2377.03 317.41C2376.74 316.441 2376.45 315.472 2376.15 314.473C2375.39 311.304 2375.39 311.304 2373.03 310.41C2370.26 310.253 2367.51 310.152 2364.74 310.094C2363.92 310.073 2363.1 310.052 2362.26 310.031C2359.64 309.965 2357.02 309.907 2354.4 309.848C2352.63 309.805 2350.86 309.761 2349.08 309.717C2344.73 309.61 2340.38 309.509 2336.03 309.41C2336.03 307.43 2336.03 305.45 2336.03 303.41Z" fill="white"/>
<path d="M2336.03 417.41C2351.21 417.41 2366.39 417.41 2382.03 417.41C2382.03 419.39 2382.03 421.37 2382.03 423.41C2370.15 423.41 2358.27 423.41 2346.03 423.41C2346.36 425.39 2346.69 427.37 2347.03 429.41C2345.38 429.41 2343.73 429.41 2342.03 429.41C2341.78 428.441 2341.53 427.472 2341.28 426.473C2340.87 425.462 2340.45 424.452 2340.03 423.41C2338 422.442 2338 422.442 2336.03 422.41C2336.03 420.76 2336.03 419.11 2336.03 417.41Z" fill="white"/>
<path d="M2336.03 508.41C2351.21 508.41 2366.39 508.41 2382.03 508.41C2382.03 510.39 2382.03 512.37 2382.03 514.41C2366.85 514.41 2351.67 514.41 2336.03 514.41C2336.03 512.43 2336.03 510.45 2336.03 508.41Z" fill="white"/>
<path d="M358.34 1032.97C363.269 1033.37 365.563 1035.5 368.718 1039.03C375.028 1046.68 375.028 1046.68 375.028 1048.41C366.559 1049.33 366.559 1049.33 362.805 1047.07C361.109 1045.59 359.534 1044.09 358.028 1042.41C357.099 1043.9 357.099 1043.9 356.153 1045.41C354.286 1047.71 353.443 1048.35 350.469 1048.81C347.965 1048.79 345.518 1048.67 343.028 1048.41C346.217 1041.62 350.267 1033.96 358.34 1032.97Z" fill="white"/>
<path d="M1921.03 1034.41C1923.63 1034.12 1923.63 1034.12 1926.65 1034.22C1928.16 1034.26 1928.16 1034.26 1929.69 1034.3C1930.46 1034.34 1931.23 1034.37 1932.03 1034.41C1929.56 1039.95 1925.69 1044.57 1921.03 1048.41C1917.61 1049.27 1915.58 1048.97 1912.03 1048.41C1913.15 1046.64 1914.28 1044.87 1915.4 1043.1C1916.03 1042.11 1916.66 1041.13 1917.3 1040.11C1918.52 1038.2 1919.77 1036.3 1921.03 1034.41Z" fill="white"/>
<path d="M2356.03 320.41C2358.01 320.41 2359.99 320.41 2362.03 320.41C2362.03 324.7 2362.03 328.99 2362.03 333.41C2360.05 333.41 2358.07 333.41 2356.03 333.41C2356.03 329.12 2356.03 324.83 2356.03 320.41Z" fill="white"/>
<path d="M2350.03 497.41C2352.36 497.368 2354.69 497.369 2357.03 497.41C2358.03 498.41 2358.03 498.41 2358.09 500.973C2358.07 501.777 2358.05 502.582 2358.03 503.41C2355.39 503.41 2352.75 503.41 2350.03 503.41C2350.03 501.43 2350.03 499.45 2350.03 497.41Z" fill="white"/>
<path d="M2375.03 497.41C2377.34 497.41 2379.65 497.41 2382.03 497.41C2382.03 499.39 2382.03 501.37 2382.03 503.41C2379.72 503.41 2377.41 503.41 2375.03 503.41C2375.03 501.43 2375.03 499.45 2375.03 497.41Z" fill="white"/>
</svg>
